<svg xmlns="http://www.w3.org/2000/svg" width="30" height="30" viewBox="0 0 30 30" fill="none">
  <path d="M1.38281 6.03516C0.802734 6.26367 0.375 6.68555 0.134766 7.26562C0.0351562 7.51172 0.0292969 7.82227 0.0292969 12.7148V17.9004L0.222656 18.293C0.457031 18.7676 0.867188 19.1602 1.33594 19.3477C1.66406 19.4824 1.71094 19.4824 4.23633 19.5L6.80273 19.5176L6.97266 19.3418C7.17773 19.1367 7.19531 18.9961 7.02539 18.7852L6.9082 18.6328H5.47266H4.04297V18.2227V17.8125H12.8906C21.6621 17.8125 21.7383 17.8125 21.8555 17.6953C22.002 17.5488 22.0078 17.2793 21.8613 17.1035L21.75 16.9629L12.8965 16.9453L4.04297 16.9336V16.5527V16.1719H15H25.957V16.5469V16.9277L24.5449 16.9453L23.1328 16.9629L22.9922 17.127C22.8223 17.3262 22.8164 17.4551 22.9746 17.6602L23.0918 17.8125H24.5273H25.957V18.2227V18.6328H17.1094C8.33789 18.6328 8.26172 18.6328 8.14453 18.75C7.99805 18.8965 7.99219 19.166 8.13867 19.3418L8.25 19.4824H18.293H28.3301L28.6641 19.3477C29.1328 19.1602 29.543 18.7676 29.7773 18.293L29.9707 17.9004V12.6855V7.4707L29.8066 7.13672C29.5898 6.69727 29.1973 6.29883 28.7812 6.10547L28.4473 5.94727L17.6836 5.92969L6.92578 5.91797L6.80273 6.07031C6.73242 6.1582 6.67969 6.26367 6.67969 6.30469C6.67969 6.45703 6.81445 6.66797 6.95508 6.73242C7.05469 6.7793 10.0371 6.79688 17.6426 6.79688C27.9023 6.79688 28.1953 6.80273 28.4062 6.9082C28.5234 6.97266 28.6934 7.0957 28.7812 7.18945C29.1328 7.55859 29.1211 7.33008 29.1211 12.6738C29.1211 16.207 29.1035 17.6133 29.0508 17.7598C28.9453 18.0703 28.7871 18.2695 28.4883 18.4395C28.2363 18.5859 28.1484 18.6035 27.5273 18.627L26.8359 18.6445V17.1152V15.5801L26.6895 15.4395L26.5488 15.293H15H3.45117L3.31055 15.4395L3.16406 15.5801V17.1152V18.6445L2.47852 18.6211C1.91016 18.6035 1.74609 18.5742 1.54102 18.4688C1.27148 18.3281 1.04883 18.0645 0.943359 17.7598C0.896484 17.6191 0.878906 16.1719 0.878906 12.6738C0.878906 7.33008 0.867188 7.55859 1.21875 7.18945C1.55859 6.82617 1.55273 6.82617 3.65039 6.79688L5.57812 6.76758L5.68945 6.62695C5.83594 6.45117 5.83008 6.20508 5.68359 6.04688C5.56055 5.91797 5.54297 5.91797 3.61523 5.91797C1.8457 5.92383 1.64648 5.93555 1.38281 6.03516Z" fill="#3c65f5"/>
  <path d="M14.4434 8.75977C14.3613 8.83594 14.2969 8.94141 14.2969 8.98828C14.2969 9.15234 14.4258 9.36328 14.5723 9.42773C14.6719 9.47461 15.9668 9.49219 18.9492 9.49219C23.1504 9.49219 23.1914 9.49219 23.3438 9.36914C23.5371 9.2168 23.5547 8.90625 23.3789 8.73047C23.2617 8.61328 23.1855 8.61328 18.9258 8.61328H14.584L14.4434 8.75977Z" fill="#3c65f5"/>
  <path d="M24.797 8.74805C24.6271 8.92969 24.633 9.16992 24.8146 9.3457C24.9494 9.48633 24.9845 9.49219 25.7521 9.49219C26.5197 9.49219 26.5548 9.48633 26.6896 9.3457C26.8654 9.16992 26.8771 8.9707 26.713 8.76562C26.5958 8.61328 26.59 8.61328 25.758 8.61328C24.9611 8.61328 24.9142 8.61914 24.797 8.74805Z" fill="#3c65f5"/>
  <path d="M7.98633 20.8125C7.91602 20.8945 7.85156 21.0703 7.82812 21.2578C7.74023 21.9668 7.35938 22.6582 6.79102 23.1562C6.49805 23.4082 6.44531 23.4844 6.44531 23.6484C6.44531 23.8887 6.62109 24.082 6.83203 24.082C7.41211 24.082 8.42578 22.752 8.64258 21.709C8.75977 21.1348 8.75391 20.9941 8.58398 20.8301C8.40234 20.6426 8.14453 20.6367 7.98633 20.8125Z" fill="#3c65f5"/>
  <path d="M11.1445 20.8008C11.0215 20.918 11.0156 20.9531 11.0156 22.3828C11.0156 23.7715 11.0215 23.8535 11.1328 23.9649C11.2793 24.1113 11.5488 24.1172 11.7246 23.9707L11.8652 23.8594V22.3828V20.9063L11.7246 20.7949C11.5488 20.6485 11.3027 20.6543 11.1445 20.8008Z" fill="#3c65f5"/>
  <path d="M14.8242 20.8008C14.7129 20.9121 14.707 20.9942 14.707 22.3828C14.707 23.7715 14.7129 23.8535 14.8242 23.9649C14.9707 24.1113 15.2402 24.1172 15.416 23.9707L15.5566 23.8594V22.3828V20.9063L15.416 20.7949C15.2402 20.6485 14.9707 20.6543 14.8242 20.8008Z" fill="#3c65f5"/>
  <path d="M18.2754 20.7949L18.1348 20.9063V22.3711C18.1348 23.7305 18.1406 23.8418 18.2461 23.959C18.3926 24.1172 18.709 24.1231 18.8672 23.9649C18.9785 23.8535 18.9844 23.7715 18.9844 22.3828C18.9844 20.9531 18.9785 20.918 18.8555 20.8008C18.6973 20.6543 18.4512 20.6485 18.2754 20.7949Z" fill="#3c65f5"/>
  <path d="M21.4157 20.8301C21.2457 20.9941 21.2399 21.1348 21.3571 21.709C21.5739 22.752 22.5875 24.082 23.1676 24.082C23.3844 24.082 23.5543 23.8887 23.5543 23.6484C23.5543 23.4785 23.5016 23.4082 23.2086 23.1504C22.6286 22.6465 22.2653 21.9785 22.1715 21.252C22.1071 20.7188 21.7321 20.5078 21.4157 20.8301Z" fill="#3c65f5"/>
</svg>