<svg xmlns="http://www.w3.org/2000/svg" width="30" height="30" viewBox="0 0 30 30" fill="none">
  <g clip-path="url(#clip0_4_38)">
    <path d="M13.482 0.058594C12.6852 0.134766 11.5602 0.333984 10.7809 0.533203C10.066 0.720703 8.98204 1.07227 8.71837 1.20703C8.41954 1.36523 8.43712 1.83398 8.74766 1.98047C8.88829 2.05078 8.97618 2.0332 9.59727 1.81641C10.5406 1.48242 11.6598 1.20117 12.6617 1.04883C13.8805 0.861328 16.1188 0.861328 17.3375 1.04883C20.9117 1.59961 24.0934 3.23438 26.5426 5.7832C27.2106 6.48047 27.8199 7.22461 28.2828 7.92188C28.6168 8.41992 28.6344 8.67188 28.3648 8.91797C28.2359 9.03516 28.1188 9.08203 27.9723 9.08203C27.7145 9.08203 27.568 8.93555 26.9645 8.09766C25.6461 6.25781 23.7008 4.62891 21.5914 3.60352C19.857 2.75391 18.4156 2.33789 16.5231 2.13867C11.1852 1.56445 5.87657 3.99023 2.78868 8.42578C2.60118 8.68945 2.3961 8.94727 2.32579 8.99414C1.98594 9.22852 1.4586 8.95898 1.44688 8.53711C1.44102 8.36133 1.51133 8.21484 1.8336 7.75195C3.10508 5.89453 4.98594 4.16602 7.01329 2.99414C7.44688 2.74805 7.55821 2.625 7.55821 2.40234C7.55821 2.23828 7.30626 1.99219 7.13048 1.99219C6.84337 1.99219 5.22032 3.04688 4.15977 3.92578C2.67149 5.15625 0.749616 7.44727 0.597272 8.19141C0.403912 9.09375 1.08946 9.96094 2.00938 9.96094C2.59532 9.96094 2.9586 9.70898 3.4918 8.94727C4.94493 6.86133 6.99571 5.16211 9.25743 4.16016C12.4508 2.74219 16.0133 2.54883 19.2945 3.60938C22.277 4.57617 24.6969 6.38086 26.5602 9.02344C27.0875 9.77344 27.4801 10.002 28.1246 9.94336C28.5113 9.9082 28.7398 9.80273 28.9977 9.54492C29.3492 9.19922 29.4957 8.71289 29.4078 8.21484C29.2672 7.47656 27.3512 5.16797 25.8395 3.92578C23.3141 1.83984 20.4723 0.597656 17.191 0.140625C16.4176 0.0351564 14.2438 -0.0117186 13.482 0.058594Z" fill="#3c65f5"/>
    <path d="M14.0859 5.91798C11.8711 6.11134 9.69141 6.9961 7.99805 8.37891C7.42969 8.8418 6.42773 9.90235 6.01758 10.4707C5.47852 11.2266 5.27344 11.666 5.27344 12.0586C5.2793 13.2481 6.55664 13.9277 7.55859 13.2656C7.69336 13.1777 7.92773 12.8906 8.16211 12.5508C9.45703 10.6113 11.209 9.43946 13.5 8.95899C14.332 8.78321 15.668 8.78321 16.5 8.95899C18.7852 9.4336 20.5254 10.6055 21.8379 12.5508C22.3652 13.3301 22.7754 13.582 23.4082 13.5176C24.1758 13.4414 24.7207 12.8379 24.7266 12.0645C24.7266 11.6543 24.498 11.1738 23.918 10.4004C22.166 8.03907 19.5117 6.4336 16.6699 6.01173C15.9082 5.9004 14.7539 5.85938 14.0859 5.91798ZM15.8203 6.79688C17.2148 6.91993 18.2812 7.22462 19.541 7.85157C21.1875 8.67188 22.4883 9.82618 23.5195 11.3672C23.8945 11.9297 23.9355 12.1641 23.7129 12.4395C23.5488 12.6445 23.209 12.7149 22.998 12.5742C22.9219 12.5215 22.7168 12.2754 22.5527 12.0234C21.6328 10.6582 20.5312 9.66798 19.1074 8.94141C15.7441 7.21876 11.7773 7.7461 8.92383 10.2949C8.43164 10.7285 7.88086 11.3848 7.44727 12.0293C7.07812 12.5742 6.93164 12.6856 6.63281 12.6387C6.3457 12.5918 6.15234 12.3691 6.15234 12.0762C6.15234 11.6777 7.02539 10.4883 7.99219 9.56837C8.73633 8.85938 9.49219 8.33204 10.459 7.85157C11.6895 7.2422 12.8262 6.91407 14.0859 6.80274C14.8594 6.73243 15.0703 6.73243 15.8203 6.79688Z" fill="#3c65f5"/>
    <path d="M14.0442 12.0703C12.8665 12.2813 11.8235 12.8496 10.9798 13.7168C10.2415 14.4844 9.96611 15.0352 10.0481 15.5801C10.2005 16.582 11.2317 17.127 12.1458 16.6758C12.4036 16.5527 12.5384 16.4297 12.7728 16.1133C13.136 15.627 13.388 15.416 13.9271 15.1582C14.3021 14.9824 14.3606 14.9707 14.9993 14.9707C15.638 14.9707 15.6966 14.9824 16.0657 15.1582C16.5989 15.4102 16.8392 15.5977 17.179 16.0547C17.5188 16.5 17.8235 16.7285 18.2103 16.8106C19.2122 17.0215 20.138 16.1133 19.9329 15.1231C19.763 14.332 18.6321 13.1543 17.4778 12.5742C16.7161 12.1934 16.1419 12.0586 15.1751 12.0352C14.7063 12.0293 14.1966 12.041 14.0442 12.0703ZM15.9661 12.9785C16.8743 13.166 17.7356 13.6406 18.3802 14.3086C18.7786 14.7246 19.1009 15.1992 19.1009 15.3633C19.1009 15.5625 18.9192 15.8262 18.7317 15.9082C18.4446 16.0254 18.2454 15.9551 17.9993 15.6504C17.1263 14.5606 16.1888 14.0625 14.9993 14.0625C13.7981 14.0625 12.8724 14.5547 11.9993 15.6504C11.7532 15.9551 11.554 16.0254 11.2669 15.9082C11.0794 15.8262 10.8978 15.5625 10.8978 15.3633C10.8978 15.1758 11.3372 14.5723 11.7649 14.168C12.4036 13.5645 13.1595 13.166 14.0032 12.9844C14.513 12.8731 15.4329 12.8731 15.9661 12.9785Z" fill="#3c65f5"/>
    <path d="M14.4723 16.9863C13.945 17.1562 13.4469 17.6015 13.2243 18.0937C13.0426 18.4922 13.0543 19.1953 13.236 19.6172C13.4118 20.0097 13.9332 20.5019 14.3317 20.6425C14.7887 20.8008 15.3629 20.7773 15.7907 20.5722C16.1657 20.3965 16.5758 20.0039 16.7399 19.6582L16.8395 19.4531H19.5934C22.1364 19.4531 22.3883 19.4648 22.8336 19.5703C24.4743 19.9629 25.7516 21.1465 26.32 22.7929C26.5016 23.3261 26.5075 23.3906 26.5133 24.2285C26.5133 25.2539 26.443 25.5586 26.027 26.4433C25.8043 26.9238 25.7692 27.041 25.8161 27.1758C25.8864 27.3691 26.1325 27.498 26.3375 27.4453C26.6422 27.3691 27.1051 26.3906 27.3161 25.3711C27.4684 24.6445 27.4391 23.5254 27.2457 22.8222C26.7184 20.8652 25.2653 19.3828 23.2789 18.7675L22.7633 18.6093L19.8454 18.5859C17.6422 18.5742 16.9215 18.5508 16.9098 18.498C16.734 17.8769 16.3532 17.3789 15.8551 17.1269C15.6207 17.0039 15.4567 16.9687 15.0875 16.957C14.8297 16.9453 14.5543 16.957 14.4723 16.9863ZM15.4274 17.8945C15.82 18.0527 16.1071 18.5859 16.0309 19.0019C15.984 19.2656 15.779 19.5644 15.5329 19.7285C15.3805 19.8281 15.2516 19.8633 14.9997 19.8633C14.1032 19.8633 13.6403 18.8496 14.2204 18.1582C14.5016 17.83 15.0114 17.7187 15.4274 17.8945Z" fill="#3c65f5"/>
    <path d="M7.38232 18.668C5.70068 19.0254 4.20654 20.1797 3.43896 21.709C1.69872 25.2012 3.89599 29.3848 7.76318 29.9414C8.09716 29.9883 10.2593 30 15.439 29.9883C22.6343 29.9707 22.646 29.9707 23.0972 29.8418C24.105 29.5547 25.1655 28.9687 25.2827 28.6348C25.353 28.418 25.2241 28.1777 24.9956 28.0957C24.8198 28.0371 24.855 28.0254 24.1753 28.4414C23.8003 28.6699 23.3843 28.8398 22.8218 28.9922C22.4995 29.0801 21.8022 29.0918 15.1167 29.0918H7.76318L7.30029 28.957C4.56396 28.166 3.06982 25.3476 3.97802 22.6933C4.47607 21.2402 5.63036 20.1328 7.17724 19.623C7.56396 19.4941 7.70458 19.4883 9.53857 19.459L11.4956 19.4238L11.6362 19.2598C11.8061 19.0605 11.812 18.9316 11.6538 18.7265L11.5366 18.5742L9.64989 18.5801C8.27294 18.5801 7.65771 18.6035 7.38232 18.668Z" fill="#3c65f5"/>
    <path d="M16.4648 22.0137C16.418 22.0313 16.3301 22.084 16.2773 22.1367C16.1777 22.2188 16.1719 22.4004 16.1719 24.375C16.1719 26.4844 16.1719 26.5254 16.2949 26.6367C16.4062 26.7363 16.5176 26.748 17.4023 26.748C18.2871 26.748 18.3984 26.7363 18.5098 26.6367C18.668 26.4902 18.6797 26.1328 18.5273 25.998C18.4395 25.916 18.2871 25.8984 17.7363 25.8984H17.0508V25.3418V24.7852H17.666C18.2051 24.7852 18.2988 24.7676 18.3984 24.668C18.5449 24.5215 18.5508 24.252 18.4043 24.0762C18.2988 23.9473 18.2402 23.9355 17.6719 23.918L17.0508 23.8945V23.373V22.8516H17.7246C18.3223 22.8516 18.4102 22.8398 18.5156 22.7344C18.6738 22.5762 18.668 22.2598 18.5098 22.1133C18.3984 22.0137 18.2812 22.002 17.4668 21.9902C16.9629 21.9844 16.5117 21.9961 16.4648 22.0137Z" fill="#3c65f5"/>
    <path d="M20.6484 22.043C20.4082 22.1601 20.3906 22.3008 20.3906 24.4043V26.4199L20.5312 26.584C20.6719 26.748 20.6777 26.748 21.4746 26.7656C22.3828 26.7891 22.6348 26.7598 22.7988 26.5957C22.9277 26.4668 22.9453 26.2031 22.8281 26.0391C22.7578 25.9453 22.6465 25.9219 22.0195 25.8984L21.2988 25.8691V25.3418V24.8144L21.9141 24.7969C22.4473 24.7851 22.5469 24.7617 22.6582 24.6562C22.7988 24.5215 22.8281 24.3223 22.7344 24.1406C22.6465 23.9766 22.3594 23.9062 21.7852 23.9062H21.2637L21.2812 23.3906L21.2988 22.8809L21.9727 22.8633C22.5645 22.8516 22.6582 22.834 22.7754 22.7226C22.998 22.5176 22.9453 22.2012 22.6699 22.0605C22.4766 21.9551 20.8535 21.9434 20.6484 22.043Z" fill="#3c65f5"/>
    <path d="M7.55843 22.1484C7.49397 22.2128 7.42952 22.3242 7.41194 22.3945C7.39437 22.4707 7.38265 23.4375 7.39437 24.539L7.41194 26.5546L7.55257 26.666C7.71663 26.7949 7.95687 26.8125 8.12093 26.6953C8.22054 26.6191 8.23812 26.5136 8.26155 25.7109L8.29085 24.8144L8.92366 24.7851C9.60921 24.7558 9.7264 24.6972 9.7264 24.3867C9.7264 24.0293 9.4803 23.9062 8.75374 23.9062H8.26155V23.4082V22.9101H8.90022C9.45101 22.9101 9.55647 22.8925 9.69124 22.7871C9.89046 22.6289 9.90218 22.3359 9.70882 22.1601C9.57991 22.0371 9.51546 22.0312 8.62483 22.0312C7.75765 22.0312 7.6639 22.0429 7.55843 22.1484Z" fill="#3c65f5"/>
    <path d="M11.6016 22.1367L11.4551 22.2539V24.3926C11.4551 26.4141 11.4609 26.5371 11.5664 26.6543C11.7012 26.8008 11.9883 26.8184 12.1758 26.6836C12.2988 26.6016 12.3047 26.5547 12.3047 25.8926C12.3047 25.5117 12.3281 25.1953 12.3574 25.1953C12.3809 25.1953 12.7031 25.5352 13.0605 25.9512C13.4238 26.3672 13.7578 26.7246 13.8105 26.7422C14.1797 26.8887 14.5488 26.5781 14.4199 26.2324C14.3906 26.1621 14.127 25.8281 13.8281 25.4941L13.2891 24.8848L13.5293 24.791C14.4902 24.4219 14.7363 23.1797 13.998 22.4473C13.6523 22.1016 13.5234 22.0664 12.5977 22.043C11.8125 22.0254 11.7305 22.0312 11.6016 22.1367ZM13.3652 23.0742C13.5117 23.2031 13.5469 23.2852 13.5469 23.4668C13.5469 23.6484 13.5117 23.7305 13.3652 23.8594C13.2012 24.0059 13.1367 24.0234 12.7734 24.0234H12.3633V23.4668V22.9102H12.7734C13.1367 22.9102 13.2012 22.9277 13.3652 23.0742Z" fill="#3c65f5"/>
  </g>
  <defs>
    <clipPath id="clip0_4_38">
      <rect width="30" height="30" fill="white"/>
    </clipPath>
  </defs>
</svg>