<svg xmlns="http://www.w3.org/2000/svg" width="30" height="30" viewBox="0 0 30 30" fill="none">
  <path d="M4.95747 0.117188C4.60591 0.257812 4.3188 0.521484 4.14302 0.878906L4.01411 1.14258L3.99653 13.8281C3.99067 22.2129 4.00239 26.6074 4.04341 26.7949C4.16645 27.375 4.61177 27.8262 5.19184 27.9551L5.50825 28.0254V28.623C5.50825 29.3613 5.6313 29.6543 6.03559 29.8652C6.25825 29.9824 6.36958 30 6.98481 30C7.75239 30 7.95747 29.9473 8.21528 29.6719C8.44966 29.4199 8.49653 29.2324 8.49653 28.5879V28.0078H15.0004H21.5043V28.5879C21.5043 29.2324 21.5512 29.4199 21.7856 29.6719C22.0434 29.9473 22.2485 30 23.0161 30C23.6313 30 23.7426 29.9824 23.9653 29.8652C24.3696 29.6543 24.4926 29.3613 24.4926 28.623V28.0254L24.809 27.9551C25.3891 27.8262 25.8344 27.375 25.9575 26.7949C25.9985 26.6074 26.0102 22.2129 26.0043 13.8281C25.9868 2.17383 25.9809 1.125 25.8872 0.931641C25.729 0.568359 25.395 0.251953 25.0434 0.117188C24.727 0 24.6508 0 14.9829 0C5.51997 0.00585938 5.23872 0.00585938 4.95747 0.117188ZM24.6977 1.05469C25.0375 1.18359 25.02 0.84375 25.0082 9.00586L24.9907 16.4941H15.0004H5.0102L4.99263 9.00586C4.98091 0.902345 4.96919 1.18359 5.28559 1.05469C5.47309 0.978516 24.4985 0.978516 24.6977 1.05469ZM25.02 21.9961C25.02 25.1191 25.0024 26.5254 24.9555 26.6543C24.8559 26.9297 24.645 27.0117 24.0063 27.0117H23.4497L23.4145 26.8184C23.3969 26.7188 23.2094 25.3125 22.9985 23.7012C22.7875 22.0898 22.5707 20.6426 22.518 20.4844C22.4184 20.1797 22.1079 19.8223 21.7856 19.6465C21.604 19.5469 21.2407 19.541 15.0004 19.541C8.7602 19.541 8.39692 19.5469 8.21528 19.6465C7.89302 19.8223 7.58247 20.1797 7.48286 20.4844C7.43013 20.6426 7.21333 22.0898 7.00239 23.7012C6.79145 25.3125 6.60395 26.7188 6.58638 26.8184L6.55122 27.0117H5.99458C5.35591 27.0117 5.14497 26.9297 5.04536 26.6543C4.99848 26.5254 4.98091 25.1191 4.98091 21.9961V17.5195H15.0004H25.02V21.9961ZM21.393 20.584C21.4457 20.625 21.5161 20.707 21.5512 20.7773C21.5864 20.8418 21.7856 22.2012 21.9965 23.7949C22.2075 25.3887 22.395 26.7598 22.4125 26.8477L22.436 27.0117H15.0004H7.56489L7.58833 26.8477C7.60591 26.7598 7.79341 25.3887 8.00434 23.7949C8.21528 22.2012 8.4145 20.8418 8.44966 20.7773C8.48481 20.707 8.55513 20.625 8.60786 20.584C8.74263 20.4785 21.2582 20.4785 21.393 20.584ZM7.50044 28.5059V29.0039H7.00239H6.50434V28.5059V28.0078H7.00239H7.50044V28.5059ZM23.4965 28.5059V29.0039H22.9985H22.5004V28.5059V28.0078H22.9985H23.4965V28.5059Z" fill="#3c65f5"/>
  <path d="M14.7248 3.60352C14.5783 3.70313 13.7873 4.75196 13.1662 5.6543C12.2697 6.9668 11.5138 8.33789 11.2209 9.17578C11.0158 9.7793 10.963 10.6172 11.0978 11.2441C11.5607 13.4355 13.8751 14.9238 15.9259 14.3555C18.1349 13.7402 19.4416 11.5137 18.838 9.39844C18.5099 8.26758 17.3732 6.31641 15.8908 4.34766C15.3517 3.63282 15.2287 3.51563 15.0001 3.51563C14.9181 3.51563 14.7951 3.55664 14.7248 3.60352ZM15.5099 5.51953C17.1974 7.88672 17.9884 9.4336 17.9884 10.377C17.9884 11.1035 17.6837 11.9121 17.215 12.4453L16.963 12.7266L16.9572 12.2402C16.9572 11.877 16.922 11.666 16.8224 11.4258C16.6056 10.8984 16.0138 9.73828 15.6564 9.14063C15.0236 8.08594 14.7775 8.21485 13.7814 10.1484C13.1603 11.3613 13.0431 11.6836 13.0431 12.2344L13.0373 12.7266L12.7853 12.4395C12.2638 11.8477 11.9709 10.9746 12.0294 10.1777C12.0939 9.26367 12.8849 7.76953 14.4904 5.51953C14.7482 5.16211 14.9826 4.86328 15.0001 4.86328C15.0177 4.86328 15.2521 5.16211 15.5099 5.51953ZM15.4513 10.8516C15.6798 11.3145 15.9025 11.7891 15.9376 11.918C16.1544 12.5977 15.6212 13.4766 15.0001 13.4766C14.3791 13.4766 13.8459 12.5977 14.0626 11.918C14.1505 11.625 14.9474 10.0195 15.0001 10.0195C15.0236 10.0195 15.2287 10.3945 15.4513 10.8516Z" fill="#3c65f5"/>
  <path d="M11.1688 21.6562C11.0867 21.7441 11.0164 21.8613 11.0164 21.9199C11.0164 21.9902 10.9168 22.0781 10.7059 22.1718C10.2371 22.3945 9.93243 22.6875 9.71563 23.1328C9.54571 23.4785 9.52227 23.5781 9.52813 23.9941C9.52813 24.3691 9.55743 24.5273 9.68047 24.791C9.96758 25.4238 10.4832 25.8281 11.1453 25.9511C12.0242 26.1093 12.909 25.6523 13.2957 24.8437C13.4246 24.5683 13.4481 24.4453 13.4481 23.9648C13.4481 23.4961 13.4246 23.3672 13.3074 23.1504C13.0965 22.7519 12.6922 22.3535 12.3348 22.2011C12.0887 22.0898 12.0066 22.0254 11.9832 21.9023C11.9363 21.6972 11.6961 21.5039 11.4852 21.5039C11.3914 21.5039 11.2625 21.5683 11.1688 21.6562ZM11.4852 23.4961C11.6141 23.4961 11.7254 23.4433 11.8484 23.3144L12.0301 23.1386L12.1766 23.2734C12.3699 23.4492 12.4813 23.7304 12.4813 24.0234C12.4813 24.9726 11.157 25.3476 10.6648 24.539C10.4246 24.1406 10.4715 23.6367 10.7879 23.3203L10.9695 23.1445L11.1336 23.3203C11.2508 23.4433 11.3504 23.4961 11.4852 23.4961Z" fill="#3c65f5"/>
  <path d="M18.2051 21.6211C18.123 21.6855 18.041 21.8144 18.0176 21.9023C17.9941 22.0254 17.9121 22.0898 17.666 22.2011C17.3086 22.3535 16.9043 22.7519 16.6934 23.1504C16.5762 23.3672 16.5527 23.4961 16.5527 23.9648C16.5527 24.4453 16.5762 24.5683 16.7051 24.8437C17.0859 25.6406 17.9824 26.1152 18.8262 25.9511C19.5176 25.8222 20.0332 25.4238 20.3203 24.791C20.4434 24.5273 20.4727 24.3691 20.4727 23.9941C20.4785 23.5781 20.4551 23.4785 20.2852 23.1328C20.0684 22.6875 19.7637 22.3945 19.2949 22.1718C19.084 22.0781 18.9844 21.9902 18.9844 21.9199C18.9844 21.7558 18.6973 21.5039 18.5156 21.5039C18.4277 21.5039 18.2871 21.5566 18.2051 21.6211ZM18.1523 23.3203C18.3926 23.5605 18.6445 23.5605 18.8672 23.3203L19.0312 23.1445L19.2129 23.3203C19.8984 24.0117 19.2129 25.207 18.2695 24.9551C17.5254 24.7558 17.2676 23.8593 17.8008 23.3027C17.8828 23.2148 17.959 23.1445 17.9648 23.1445C17.9707 23.1445 18.0586 23.2207 18.1523 23.3203Z" fill="#3c65f5"/>
</svg>