<svg xmlns="http://www.w3.org/2000/svg" width="30" height="30" viewBox="0 0 30 30" fill="none">
  <g clip-path="url(#clip0_4_48)">
    <path d="M15.7617 0.0878903C15.0059 0.251953 14.2852 0.626953 13.5527 1.23047C13.0312 1.66406 12.832 2.02734 12.832 2.54297C12.832 3.14648 12.9492 3.30469 14.8125 5.33789C16.7109 7.40625 16.7695 7.45312 17.4316 7.45312C17.959 7.45312 18.1816 7.32422 19.0723 6.50391C19.4941 6.11719 19.8457 5.80664 19.8633 5.80078C19.8809 5.80078 20.1621 6.02344 20.4844 6.29883C21.8379 7.42383 23.2559 9 24.2519 10.4766C24.3867 10.6816 24.4922 10.8633 24.4805 10.8926C24.4687 10.916 24.123 11.25 23.7012 11.6367C22.7578 12.5039 22.5937 12.7676 22.6348 13.3711C22.6523 13.6465 22.6992 13.834 22.7988 13.998C22.875 14.1211 23.4727 14.8125 24.1289 15.5273L25.3125 16.8281L25.1133 17.0508C24.6855 17.5254 24.4336 18.1582 24.4336 18.7441C24.4394 19.5059 24.6738 20.0156 25.3711 20.7539C26.0391 21.4688 26.1035 21.5918 26.1035 22.1777C26.1035 22.7168 25.9922 22.9805 25.623 23.3262C25.2656 23.666 25.0547 23.748 24.4512 23.7773L23.9062 23.8008V22.6934C23.9062 21.498 23.8359 21.0586 23.6016 20.7188C23.5312 20.6191 22.7285 19.7988 21.8203 18.8965C19.7519 16.8457 19.9102 17.1621 19.8691 15.0293C19.8281 13.3301 19.8223 13.2949 19.4121 12.9551C19.1367 12.7266 18.8906 12.6562 18.3867 12.6562H17.9883V11.5254V10.3887L17.8066 10.0312C17.5195 9.45117 17.0508 9.14062 16.4062 9.09961C15.6562 9.04688 14.9707 9.48047 14.7129 10.166C14.6074 10.4531 14.5898 10.623 14.5898 11.5723V12.6562H11.959H9.32812L9.30468 11.5254C9.28711 10.4941 9.26953 10.377 9.14648 10.0898C8.87695 9.49219 8.24414 9.08203 7.58789 9.08203C6.93164 9.08203 6.29882 9.49219 6.02929 10.0898C5.90625 10.377 5.88867 10.4941 5.87109 11.5254L5.84765 12.6562H5.43164C4.95703 12.6562 4.64062 12.7734 4.37109 13.043C4.04296 13.377 4.01953 13.4883 3.98437 15.1465L3.95507 16.6758L3.76757 17.0566C3.59765 17.3965 3.38086 17.6309 1.96289 19.0137C0.785152 20.1562 0.298824 20.666 0.187496 20.8828L0.0292929 21.1816L0.0117148 24.2109C-3.96953e-06 26.7832 0.0117148 27.2988 0.0878867 27.6328C0.351559 28.7812 1.34179 29.7305 2.48437 29.9355C2.67773 29.9707 3.39257 30 4.07226 30C5.2207 30 5.32617 29.9941 5.46093 29.8828C5.54296 29.8184 5.625 29.7188 5.63671 29.6602C5.68359 29.4844 5.53125 29.1855 5.3789 29.1562C5.30273 29.1387 4.64062 29.1152 3.89648 29.1094L2.54882 29.0918L2.16796 28.9102C1.68164 28.6816 1.31836 28.3184 1.08984 27.832L0.908199 27.4512L0.890621 24.5508C0.878902 22.957 0.890621 21.5566 0.908199 21.4453C0.943355 21.2812 1.21875 20.9766 2.57812 19.6406C3.47461 18.7617 4.28906 17.9121 4.39453 17.7598C4.79296 17.1387 4.82812 16.9453 4.86328 15.2754C4.89257 13.7695 4.89257 13.7578 5.0332 13.6465C5.16796 13.541 5.36132 13.5352 11.9473 13.5352C17.707 13.5352 18.7441 13.5469 18.8437 13.6172C18.9492 13.6934 18.9551 13.8047 18.9902 15.1875C19.0254 16.8516 19.0781 17.1152 19.4941 17.7539C19.6113 17.9297 20.4316 18.7852 21.3105 19.6582C22.7109 21.0352 22.9277 21.2695 22.9746 21.4746C23.0449 21.7969 23.0391 26.707 22.9629 27.2168C22.9336 27.4395 22.8516 27.7441 22.7812 27.8906C22.5879 28.2949 22.0664 28.7812 21.6504 28.9512L21.2988 29.0918L14.1387 29.1094L6.97851 29.1211L6.86132 29.2793C6.69726 29.4785 6.70898 29.6836 6.88476 29.8535L7.02539 30H14.0801C20.9648 30 21.1465 30 21.5977 29.8828C22.1426 29.7422 22.5644 29.502 22.9746 29.0918C23.3203 28.7461 23.5195 28.4355 23.7187 27.8965C23.8535 27.5332 23.8652 27.4219 23.8945 26.0859L23.918 24.668H24.4043C25.8516 24.668 26.9062 23.7129 27 22.3184C27.0527 21.4922 26.8301 20.9883 26.0215 20.1328C25.6172 19.7051 25.4766 19.5059 25.4004 19.2715C25.2187 18.7324 25.3477 18.1523 25.7402 17.666L25.8867 17.4902L26.1562 17.7422C26.5195 18.0762 26.7832 18.1816 27.2461 18.1816C27.75 18.1875 28.0312 18.0352 28.5644 17.4961C30.0176 16.0195 30.3457 14.3848 29.6133 12.2051C28.5293 8.96484 25.7871 5.28516 22.6172 2.80664C21.6621 2.0625 21.1582 1.74609 20.9766 1.78711C20.7012 1.85156 20.5312 2.2207 20.6719 2.44336C20.6953 2.47852 20.9648 2.68945 21.2695 2.90039C23.1211 4.21289 24.9316 6.01172 26.3496 7.96289C27.6035 9.67969 28.6406 11.7422 28.9863 13.207C29.1211 13.7754 29.1211 14.7422 28.9805 15.2051C28.8223 15.7441 28.5059 16.2598 28.0254 16.7637C27.5039 17.3086 27.2871 17.4082 26.9883 17.2441C26.7598 17.1211 23.584 13.6641 23.5254 13.4766C23.4199 13.1426 23.5254 12.9844 24.3691 12.2168C25.2187 11.4492 25.3711 11.2383 25.3711 10.8574C25.3711 10.1895 23.2617 7.55273 21.457 5.9707C20.5312 5.15625 20.2852 4.98633 19.9687 4.94531C19.5879 4.89258 19.3945 5.00391 18.498 5.82422C17.707 6.55078 17.6894 6.5625 17.4199 6.5625C17.0977 6.5625 17.3086 6.76172 15.1934 4.43555C13.7461 2.84766 13.7109 2.80664 13.7109 2.56641C13.7109 2.33789 13.7402 2.29102 14.0801 1.96289C15.3457 0.761719 16.8984 0.585938 18.7383 1.43555C18.9785 1.54688 19.2539 1.64062 19.3418 1.64062C19.7637 1.64062 19.8926 1.08984 19.5293 0.84375C19.2715 0.667969 18.3926 0.322266 17.8301 0.175781C17.2266 0.0117185 16.2715 -0.0292972 15.7617 0.0878903ZM8.05664 10.1016C8.36132 10.3008 8.4082 10.4883 8.42578 11.6133L8.44921 12.6562H7.58789H6.72656L6.75 11.6133C6.76757 10.6992 6.77929 10.5527 6.88476 10.3711C7.11328 9.98438 7.67578 9.84961 8.05664 10.1016ZM16.6289 10.043C16.7168 10.0898 16.8516 10.1953 16.9336 10.2832C17.0801 10.4355 17.0801 10.459 17.0977 11.5488L17.1152 12.6562H16.2949H15.4687V11.6133C15.4687 10.6816 15.4805 10.5586 15.5859 10.3828C15.8144 10.0078 16.2773 9.86133 16.6289 10.043Z" fill="#3c65f5"/>
    <path d="M10.9863 17.0742C8.38477 17.5781 6.5625 19.7637 6.5625 22.3769C6.5625 24.8203 8.08594 26.8476 10.4707 27.5801C10.9395 27.7207 11.0742 27.7383 11.9238 27.7383C13.0137 27.7441 13.4355 27.6504 14.3262 27.2168C16.9453 25.9394 18.0703 22.7344 16.8164 20.1094C16.582 19.623 16.3008 19.1719 16.1016 18.9726C15.9668 18.8379 15.6328 18.832 15.5098 18.9668C15.3105 19.1894 15.334 19.3418 15.6211 19.7754C16.3359 20.8476 16.5879 21.9609 16.3828 23.1387C16.002 25.3066 14.1387 26.8887 11.9648 26.8945C9.45117 26.9004 7.44141 24.8965 7.44141 22.3828C7.44141 20.6309 8.4375 19.0664 10.0195 18.3164C10.7168 17.9883 11.1152 17.9004 11.9531 17.9062C12.7559 17.9062 13.1719 17.9941 13.8164 18.2871C14.2559 18.4863 14.4082 18.498 14.5957 18.3516C14.7598 18.2109 14.7715 17.9238 14.6133 17.748C14.4727 17.584 14.0098 17.3789 13.3652 17.1914C12.7383 17.0039 11.625 16.9512 10.9863 17.0742Z" fill="#3c65f5"/>
    <path d="M11.6543 18.7207C11.1797 18.9844 11.3848 19.7461 11.9239 19.7461C12.2168 19.7461 12.4805 19.4883 12.4805 19.1953C12.4805 18.7852 12.0118 18.5156 11.6543 18.7207Z" fill="#3c65f5"/>
    <path d="M9.82025 19.3125C9.4804 19.6523 9.71478 20.2441 10.1835 20.2441C10.5878 20.2441 10.8398 19.9043 10.7226 19.5352C10.5878 19.1426 10.1132 19.0254 9.82025 19.3125Z" fill="#3c65f5"/>
    <path d="M13.2954 19.3301C12.9848 19.6465 13.1254 20.1386 13.559 20.25C13.7758 20.3027 14.0512 20.1738 14.1567 19.9629C14.4497 19.4004 13.7465 18.8847 13.2954 19.3301Z" fill="#3c65f5"/>
    <path d="M11.5961 20.4492C10.3364 20.666 9.6098 22.0957 10.1723 23.2441C10.3657 23.6426 10.8696 24.0996 11.2621 24.2344C12.5688 24.6855 13.8871 23.7598 13.8871 22.3887C13.8871 21.9141 13.7758 21.5684 13.5004 21.1934C13.0844 20.625 12.3168 20.3203 11.5961 20.4492ZM12.2582 21.3574C12.4575 21.3984 12.809 21.6973 12.9262 21.9199C12.9672 22.0078 13.0082 22.2188 13.0082 22.3887C13.0082 23.3613 11.8715 23.8359 11.186 23.1504C10.5766 22.5469 10.8696 21.5156 11.6957 21.3398C11.9243 21.293 11.9594 21.293 12.2582 21.3574Z" fill="#3c65f5"/>
    <path d="M8.68366 20.6543C8.461 20.8418 8.40827 21.0469 8.52546 21.2929C8.68952 21.6386 9.07038 21.7207 9.36921 21.4687C9.52155 21.3457 9.55085 21.2754 9.55085 21.0644C9.55085 20.8535 9.52155 20.7832 9.36921 20.6601C9.14069 20.4668 8.90632 20.4668 8.68366 20.6543Z" fill="#3c65f5"/>
    <path d="M14.6073 20.5664C14.537 20.5957 14.4374 20.7012 14.3846 20.8066C14.0858 21.375 14.7831 21.9023 15.2401 21.4512C15.6854 21.0059 15.1991 20.3262 14.6073 20.5664Z" fill="#3c65f5"/>
    <path d="M8.37294 22.4941C8.09755 22.7695 8.1913 23.2266 8.54872 23.3789C9.11122 23.6074 9.57412 22.9219 9.14638 22.4941C8.90615 22.2598 8.61318 22.2598 8.37294 22.4941Z" fill="#3c65f5"/>
    <path d="M14.7425 22.4707C14.5374 22.6582 14.5316 23.0098 14.7308 23.2442C15.0062 23.5606 15.5804 23.3965 15.6624 22.9805C15.7034 22.7813 15.5745 22.4707 15.4222 22.3887C15.2113 22.2774 14.9124 22.3125 14.7425 22.4707Z" fill="#3c65f5"/>
    <path d="M9.1352 24.1347C8.82466 24.4511 8.96528 24.9433 9.39887 25.0547C9.61567 25.1074 9.89106 24.9785 9.99653 24.7676C10.2895 24.2051 9.58637 23.6894 9.1352 24.1347Z" fill="#3c65f5"/>
    <path d="M10.7695 24.9961C10.4531 25.166 10.3945 25.541 10.6406 25.834C10.8281 26.0567 11.1504 26.0859 11.3847 25.8984C11.707 25.6465 11.6191 25.1016 11.2441 24.9668C11.0097 24.8848 10.9629 24.8848 10.7695 24.9961Z" fill="#3c65f5"/>
    <path d="M12.5861 24.9902C12.1057 25.2598 12.2756 26.0156 12.8146 26.0156C13.0783 26.0156 13.2189 25.9336 13.3361 25.7168C13.5705 25.2539 13.0373 24.7383 12.5861 24.9902Z" fill="#3c65f5"/>
  </g>
  <defs>
    <clipPath id="clip0_4_48">
      <rect width="30" height="30" fill="white"/>
    </clipPath>
  </defs>
</svg>