<svg xmlns="http://www.w3.org/2000/svg" width="30" height="30" viewBox="0 0 30 30" fill="none">
  <g clip-path="url(#clip0_4_27)">
    <path d="M1.14258 0.0937502C0.820313 0.205078 0.503906 0.480469 0.304688 0.808594L0.146484 1.08398V12.0117V22.9395L0.275391 23.1738C0.421875 23.4492 0.708984 23.7305 0.996094 23.8828C1.18945 23.9883 1.41797 23.9941 4.79297 24.0117L8.37891 24.0293L8.52539 23.8828C8.70117 23.707 8.71289 23.502 8.56055 23.3145L8.44922 23.1738L4.89844 23.1445L1.34766 23.1152L1.18945 22.9512L1.02539 22.793L1.00781 17.6367L0.996094 12.4805H6.32813H11.6602V17.8125V23.1445H10.9277C10.5117 23.1445 10.1367 23.1738 10.0547 23.209C9.75586 23.3438 9.73242 23.8125 10.0137 23.959C10.0898 24.0059 11.3848 24.0234 13.998 24.0234H17.8652L17.8828 26.4668C17.9004 28.8516 17.9063 28.9219 18.0293 29.1504C18.1758 29.4258 18.4629 29.707 18.75 29.8594C18.9434 29.9648 19.1895 29.9707 23.877 29.9707H28.7988L29.0332 29.8418C29.3438 29.6777 29.6133 29.3848 29.7598 29.0625C29.877 28.8105 29.8828 28.6875 29.8828 25.6582C29.8828 22.1074 29.8887 22.1484 29.4434 21.709C29.3086 21.5742 29.0801 21.416 28.9336 21.3574L28.6641 21.2578L28.6406 19.8691C28.6172 18.6328 28.5996 18.4453 28.4824 18.0762C28.0606 16.7637 27.1172 15.6914 25.8984 15.1289C25.4004 14.8945 24.7617 14.707 24.4805 14.707C24.1113 14.707 24.1406 15.2871 24.1406 7.97461C24.1406 0.433594 24.1758 0.966797 23.6719 0.46875C23.168 -0.0410154 24.2109 2.26777e-07 12.1055 0.00585961C2.94727 0.00585961 1.3418 0.0234377 1.14258 0.0937502ZM11.6719 1.82227C11.6895 2.73047 11.6953 2.76562 11.8301 2.87695C12.0059 3.02344 12.2754 3.01758 12.4219 2.87109C12.5273 2.76562 12.5391 2.67773 12.5391 1.81641V0.878906H17.6367C22.084 0.878906 22.7637 0.890625 22.9102 0.966797C23.2793 1.1543 23.2617 0.902344 23.2617 6.50391V11.6016L17.918 11.5898L12.5684 11.5723L12.5508 8.01562L12.5391 4.45898L12.3867 4.3418C12.1816 4.18359 12.0527 4.18945 11.8535 4.35938L11.6895 4.5L11.6719 8.05078L11.6602 11.6016H6.32813H0.996094V6.50391C0.996094 2.0625 1.00781 1.37695 1.08398 1.23047C1.27148 0.867188 1.00781 0.884766 6.57422 0.878906H11.6484L11.6719 1.82227ZM23.2617 13.582V14.6836L22.8106 14.7891C21.2754 15.1406 19.9629 16.2832 19.4004 17.7422C19.1484 18.4043 19.1016 18.7617 19.1016 20.0684V21.252L18.8262 21.3574C18.252 21.5801 17.8711 22.166 17.8711 22.834V23.1445H15.2051H12.5391V17.8125V12.4805H17.9004H23.2617V13.582ZM25.0078 15.709C25.7813 15.9492 26.6367 16.5645 27.0762 17.209C27.6563 18.0469 27.7734 18.5332 27.7734 20.0859V21.2754L27.4688 21.2578L27.1582 21.2402L27.1289 19.9805C27.0996 18.9727 27.0762 18.6621 26.9883 18.4277C26.6953 17.6074 26.0918 16.916 25.3594 16.5586C24.9141 16.3359 24.2813 16.1719 23.877 16.1719C23.4727 16.1719 22.8398 16.3359 22.3945 16.5586C21.6621 16.916 21.0586 17.6074 20.7656 18.4277C20.6777 18.6621 20.6543 18.9727 20.625 19.9805L20.5957 21.2402L20.291 21.2578L19.9805 21.2754V20.0859C19.9805 18.7148 20.0273 18.4629 20.4023 17.6953C20.8242 16.8281 21.7441 16.0312 22.6699 15.7324C23.3789 15.5039 24.293 15.4922 25.0078 15.709ZM24.9492 17.3203C25.3887 17.5371 25.8106 17.9707 26.0332 18.4395L26.2207 18.8379L26.2383 20.0508L26.2559 21.2695H23.877H21.4981L21.5156 20.0508L21.5332 18.8379L21.7207 18.4395C21.9492 17.9648 22.3711 17.5312 22.8164 17.3203C22.9922 17.2383 23.168 17.168 23.1973 17.168C23.2441 17.168 23.2617 17.584 23.2617 18.4512C23.2617 19.6582 23.2676 19.7402 23.3848 19.8867C23.5371 20.0801 23.8125 20.0918 24.0059 19.9102C24.1406 19.7871 24.1406 19.7695 24.1406 18.4395V17.0918L24.3926 17.1328C24.5273 17.1562 24.7793 17.2383 24.9492 17.3203ZM28.7461 22.2539C28.8164 22.3066 28.9043 22.4121 28.9395 22.4824C28.9863 22.5703 29.0039 23.5312 29.0039 25.6582V28.7109L28.834 28.8984L28.6641 29.0918H23.8828H19.1016L18.9434 28.9277L18.7793 28.7695L18.7617 25.7344C18.7559 24.0703 18.7617 22.6523 18.7734 22.582C18.791 22.5176 18.8789 22.3887 18.9609 22.3066L19.1191 22.1484H23.8711C28.2832 22.1484 28.6348 22.1602 28.7461 22.2539Z" fill="#3c65f5"/>
    <path d="M3.13513 6.11131C2.16833 6.43358 1.53552 7.23045 1.47692 8.20311C1.35388 10.3652 3.92028 11.5371 5.43786 10.0078C5.80114 9.64452 6.0238 9.21092 6.10583 8.71288C6.26989 7.73436 5.71911 6.69139 4.81091 6.2578C4.48278 6.0996 4.34802 6.0703 3.89685 6.05272C3.56872 6.041 3.28161 6.06444 3.13513 6.11131ZM4.44177 7.06639C5.63708 7.66405 5.47302 9.38671 4.18396 9.76171C2.81286 10.1601 1.75817 8.49022 2.70739 7.41796C3.16442 6.89647 3.83239 6.76171 4.44177 7.06639Z" fill="#3c65f5"/>
    <path d="M3.13477 8.11523C3.05273 8.19141 2.98828 8.32617 2.98828 8.4082C2.98828 8.49023 3.05273 8.625 3.13477 8.70117C3.26367 8.83594 3.32227 8.84766 3.7793 8.84766C4.35938 8.84766 4.51172 8.75977 4.51172 8.41406C4.51172 8.08594 4.30664 7.96875 3.73828 7.96875C3.32813 7.96875 3.25781 7.98633 3.13477 8.11523Z" fill="#3c65f5"/>
    <path d="M14.7953 6.11131C13.8285 6.43358 13.1957 7.23045 13.1371 8.20311C13.014 10.3652 15.5804 11.5371 17.098 10.0078C17.4613 9.64452 17.684 9.21092 17.766 8.71288C17.93 7.73436 17.3793 6.69139 16.4711 6.2578C16.1429 6.0996 16.0082 6.0703 15.557 6.05272C15.2289 6.041 14.9418 6.06444 14.7953 6.11131ZM16.1019 7.06639C17.2972 7.66405 17.1332 9.38671 15.8441 9.76171C14.473 10.1601 13.4183 8.49022 14.3675 7.41796C14.8246 6.89647 15.4925 6.76171 16.1019 7.06639Z" fill="#3c65f5"/>
    <path d="M14.7949 8.11523C14.7129 8.19141 14.6484 8.32617 14.6484 8.4082C14.6484 8.49023 14.7129 8.625 14.7949 8.70117C14.9238 8.83594 14.9824 8.84766 15.4395 8.84766C16.0195 8.84766 16.1719 8.75977 16.1719 8.41406C16.1719 8.08594 15.9668 7.96875 15.3984 7.96875C14.9883 7.96875 14.918 7.98633 14.7949 8.11523Z" fill="#3c65f5"/>
    <path d="M14.8828 17.7188C14.2031 17.9062 13.6465 18.3633 13.3477 18.9727C13.166 19.3418 13.1543 19.4062 13.1543 19.9805C13.1543 20.5605 13.166 20.625 13.3477 20.9883C13.5879 21.4805 14.0977 21.9668 14.5723 22.1543C14.8418 22.2656 15.0293 22.2891 15.4746 22.2949C16.002 22.2949 16.0547 22.2832 16.4766 22.0723C17.8711 21.3867 18.2227 19.6113 17.2031 18.4277C16.6758 17.8066 15.668 17.502 14.8828 17.7188ZM16.0781 18.6621C16.8281 19.0195 17.1328 19.9512 16.7344 20.6719C16.3535 21.3633 15.5449 21.6328 14.8535 21.3047C13.6699 20.748 13.7461 19.0547 14.9766 18.5977C15.2578 18.4922 15.7852 18.5273 16.0781 18.6621Z" fill="#3c65f5"/>
    <path d="M14.7658 19.7578C14.5197 20.0273 14.6896 20.4082 15.0939 20.4844C15.4044 20.543 15.9318 20.4727 16.0607 20.3555C16.2072 20.2207 16.213 19.8574 16.0666 19.7285C15.9845 19.6523 15.838 19.6289 15.422 19.6289C14.9474 19.6289 14.8712 19.6406 14.7658 19.7578Z" fill="#3c65f5"/>
    <path d="M23.5195 22.793C22.9219 22.916 22.3301 23.3906 22.0723 23.9531C21.9727 24.1699 21.9434 24.3398 21.9434 24.7558C21.9434 25.4062 22.0605 25.6933 22.5293 26.1855L22.8516 26.5254V26.959C22.8516 27.4629 22.9219 27.6269 23.2031 27.8203C23.3906 27.9433 23.4609 27.9551 23.9766 27.9375C24.5098 27.9199 24.5508 27.9082 24.7207 27.75C24.9375 27.5449 25.0195 27.2812 25.0195 26.8183C25.0195 26.4902 25.0312 26.4609 25.2773 26.2207C25.4238 26.0801 25.6113 25.8281 25.7051 25.6582C25.8516 25.3711 25.8691 25.2832 25.8691 24.7558C25.8691 24.2344 25.8516 24.1406 25.7109 23.8711C25.5059 23.4844 24.9844 23.0098 24.627 22.8867C24.2695 22.7637 23.8242 22.7285 23.5195 22.793ZM24.2168 23.6777C24.4922 23.7539 24.8379 24.0469 24.9375 24.2988C24.9844 24.4043 25.0195 24.6094 25.0195 24.7558C25.0195 24.9023 24.9844 25.1074 24.9375 25.2129C24.8672 25.3828 24.7676 25.4824 24.2754 25.8984C24.1523 25.998 24.1406 26.0566 24.1406 26.5371V27.0703H23.9414H23.7422L23.7188 26.5371C23.7012 25.957 23.7422 26.0273 23.2031 25.6113C22.5352 25.1015 22.7285 23.9883 23.5371 23.7012C23.8125 23.6015 23.9297 23.5957 24.2168 23.6777Z" fill="#3c65f5"/>
    <path d="M3.22266 17.7188C2.54297 17.9062 1.98633 18.3633 1.6875 18.9727C1.50586 19.3418 1.49414 19.4062 1.49414 19.9805C1.49414 20.5605 1.50586 20.625 1.6875 20.9883C1.92773 21.4805 2.4375 21.9668 2.91211 22.1543C3.18164 22.2656 3.36914 22.2891 3.81445 22.2949C4.3418 22.2949 4.39453 22.2832 4.81641 22.0723C6.21094 21.3867 6.5625 19.6113 5.54297 18.4277C5.01563 17.8066 4.00781 17.502 3.22266 17.7188ZM4.41797 18.6621C5.16797 19.0195 5.47266 19.9512 5.07422 20.6719C4.69336 21.3633 3.88477 21.6328 3.19336 21.3047C2.00977 20.748 2.08594 19.0547 3.31641 18.5977C3.59766 18.4922 4.125 18.5273 4.41797 18.6621Z" fill="#3c65f5"/>
    <path d="M3.10562 19.7578C2.85952 20.0273 3.02945 20.4082 3.43374 20.4844C3.74429 20.543 4.27163 20.4727 4.40054 20.3555C4.54702 20.2207 4.55288 19.8574 4.4064 19.7285C4.32437 19.6523 4.17788 19.6289 3.76187 19.6289C3.28726 19.6289 3.21109 19.6406 3.10562 19.7578Z" fill="#3c65f5"/>
  </g>
  <defs>
    <clipPath id="clip0_4_27">
      <rect width="30" height="30" fill="white"/>
    </clipPath>
  </defs>
</svg>