<svg xmlns="http://www.w3.org/2000/svg" width="30" height="30" viewBox="0 0 30 30" fill="none">
  <g clip-path="url(#clip0_3_12)">
    <path d="M9.16438 0.199219C8.91243 0.451172 8.90657 0.662109 9.13509 0.972656C9.22884 1.0957 10.2542 2.15039 11.4202 3.31055L13.5355 5.41992L7.16048 5.44922L0.785477 5.47852L0.56868 5.625C0.445633 5.70703 0.275711 5.87695 0.18782 6L0.0296173 6.22852L0.0120392 16.3711C0.000320476 23.4668 0.0120392 26.5781 0.0589142 26.7305C0.140945 27.0117 0.369461 27.2812 0.650711 27.4219C0.838211 27.5215 0.996414 27.5391 1.59993 27.5391H2.32649L2.89485 28.6523C3.22298 29.2969 3.52766 29.8125 3.61555 29.8828C3.75618 29.9941 3.84407 30 5.2679 30C6.4222 29.9941 6.80305 29.9766 6.91438 29.918C7.01399 29.8594 7.23665 29.4902 7.6468 28.7051L8.23274 27.5684H15.0003H21.7679L22.3421 28.6875C22.7699 29.5195 22.9574 29.8242 23.0804 29.9004C23.2269 29.9883 23.4437 30 24.7445 30C26.1566 30 26.2445 29.9941 26.3851 29.8828C26.473 29.8125 26.7777 29.2969 27.1058 28.6523L27.6741 27.5391H28.4007C29.0042 27.5391 29.1624 27.5215 29.3499 27.4219C29.6312 27.2812 29.8597 27.0117 29.9417 26.7305C29.9886 26.5781 30.0003 23.4668 29.9886 16.3711L29.971 6.23438L29.8245 6.01758C29.7425 5.89453 29.5726 5.72461 29.4495 5.63672L29.221 5.47852L22.8402 5.44922L16.4652 5.41992L18.5804 3.31055C19.7464 2.15039 20.7718 1.0957 20.8656 0.972656C21.0941 0.662109 21.0882 0.451172 20.8363 0.199219C20.6136 -0.0234375 20.3909 -0.0585938 20.1566 0.09375C20.0745 0.146484 18.8851 1.3125 17.5081 2.68945L15.0003 5.18555L12.4984 2.68945C11.1156 1.3125 9.9261 0.146484 9.84407 0.09375C9.6097 -0.0585938 9.38704 -0.0234375 9.16438 0.199219ZM28.8284 16.4941V26.3672H15.0003H1.1722V16.4941V6.62109H15.0003H28.8284V16.4941ZM6.91438 27.5566C6.91438 27.5684 6.7679 27.8613 6.58626 28.2012L6.26399 28.8281H5.28548H4.30696L3.99641 28.2246C3.83235 27.8965 3.69173 27.6094 3.69173 27.5801C3.69173 27.5566 4.41829 27.5391 5.30305 27.5391C6.18782 27.5391 6.91438 27.5449 6.91438 27.5566ZM26.3089 27.5801C26.3089 27.6094 26.1683 27.8965 26.0042 28.2246L25.6937 28.8281H24.7152H23.7308L23.4261 28.2246C23.2562 27.8965 23.1097 27.6094 23.098 27.5801C23.0863 27.5566 23.8011 27.5391 24.6917 27.5391C25.5824 27.5391 26.3089 27.5566 26.3089 27.5801Z" fill="#3c65f5"/>
    <path d="M4.70562 7.99803C3.65679 8.27928 2.74859 9.17576 2.49077 10.1777C2.36773 10.6523 2.36187 22.1308 2.48492 22.5879C2.74273 23.5664 3.48101 24.3574 4.50054 24.7441L4.83452 24.873L12.9498 24.8906C18.6451 24.9023 21.1763 24.8906 21.4459 24.8437C22.5533 24.6562 23.5962 23.707 23.8775 22.6348C23.9537 22.3476 23.9654 21.4219 23.9654 16.3711C23.9654 10.623 23.9595 10.4297 23.8482 10.0664C23.5377 9.06444 22.5884 8.18553 21.5748 7.97459C21.358 7.92772 18.8853 7.91014 13.1373 7.916C6.34624 7.916 4.95757 7.93358 4.70562 7.99803ZM10.3541 13.582L5.85992 18.082V18.3515C5.85992 18.7617 6.14117 18.9961 6.56304 18.9375C6.66851 18.9199 8.16851 17.4609 11.6373 13.998L16.5591 9.07615L18.9908 9.09373C21.3287 9.11131 21.4283 9.11717 21.6861 9.23436C22.0611 9.41014 22.4185 9.74998 22.606 10.1015L22.7642 10.4004L22.7818 16.3008C22.7935 22.1484 22.7935 22.2012 22.6763 22.5234C22.5181 22.9336 22.1314 23.3379 21.6919 23.543L21.358 23.7012H13.1841H5.01031L4.67632 23.543C4.2896 23.3613 3.92632 23.0098 3.73882 22.6289L3.60406 22.3535L3.58648 16.5C3.57476 11.3027 3.58062 10.6113 3.66265 10.3652C3.85015 9.80858 4.27202 9.38084 4.82281 9.19334C5.10406 9.09373 5.47906 9.08787 9.99078 9.08201H14.8541L10.3541 13.582Z" fill="#3c65f5"/>
    <path d="M15.6739 13.5293C15.5801 13.5879 14.2793 14.8594 12.791 16.3535C10.9746 18.1758 10.0723 19.125 10.043 19.2363C9.99612 19.4297 10.1074 19.7168 10.2774 19.834C10.3418 19.8809 10.5059 19.9219 10.6348 19.9219C10.8633 19.9219 10.9043 19.8867 13.6934 17.0918C16.4356 14.3555 16.5235 14.2617 16.5235 14.0449C16.5235 13.7578 16.4473 13.6172 16.2305 13.5059C16.0078 13.3887 15.8848 13.3945 15.6739 13.5293Z" fill="#3c65f5"/>
    <path d="M8.30859 20.8945C8.10352 21 8.02734 21.1465 8.02734 21.416C8.02734 21.7969 8.43164 22.0605 8.79492 21.9141C9.02344 21.8203 9.14062 21.6445 9.14062 21.3984C9.14062 21.1406 9.05859 21 8.84766 20.8887C8.63672 20.7773 8.51367 20.7832 8.30859 20.8945Z" fill="#3c65f5"/>
    <path d="M24.885 8.75977C24.5217 9.12891 24.7326 9.67383 25.2775 9.75586C25.4123 9.7793 26.0041 9.78516 26.5842 9.77344C27.551 9.75586 27.6623 9.74414 27.8088 9.63281C28.1135 9.41016 28.1369 9.0293 27.8615 8.75391C27.7209 8.61328 27.7209 8.61328 26.3791 8.61328H25.0373L24.885 8.75977Z" fill="#3c65f5"/>
    <path d="M25.0374 11.0391C24.6624 11.209 24.592 11.6895 24.8967 11.9648L25.0784 12.1289H26.385C27.5276 12.1289 27.7034 12.1113 27.8088 12.0234C28.1135 11.7832 28.1311 11.3848 27.8557 11.127C27.7092 10.9863 27.6858 10.9863 26.467 10.9746C25.4944 10.9629 25.1838 10.9746 25.0374 11.0391Z" fill="#3c65f5"/>
    <path d="M24.8964 13.5293C24.7031 13.7227 24.662 14.0625 24.8144 14.2734C24.9784 14.5137 25.1659 14.5371 26.4726 14.5195C27.6796 14.502 27.7089 14.4961 27.8554 14.3613C28.037 14.1856 28.1015 13.9336 28.0077 13.7051C27.873 13.3887 27.7323 13.3594 26.3378 13.3594H25.0663L24.8964 13.5293Z" fill="#3c65f5"/>
    <path d="M25.8104 16.2305C24.8319 16.6172 24.4042 17.8828 24.955 18.7676C25.2831 19.3008 25.8104 19.5879 26.455 19.5879C27.164 19.5879 27.7147 19.2422 28.0194 18.6035C28.4296 17.7363 28.0604 16.6992 27.1933 16.2773C26.8183 16.0957 26.2089 16.0723 25.8104 16.2305ZM26.8417 17.4551C27.287 17.9062 26.8124 18.6211 26.2323 18.375C25.9804 18.2754 25.8983 18.1348 25.8983 17.8242C25.8983 17.6309 25.9335 17.5605 26.08 17.4375C26.3319 17.2266 26.6132 17.2324 26.8417 17.4551Z" fill="#3c65f5"/>
    <path d="M25.8104 21.5039C24.8319 21.8906 24.4042 23.1562 24.955 24.041C25.2831 24.5742 25.8104 24.8613 26.455 24.8613C27.164 24.8613 27.7147 24.5156 28.0194 23.877C28.4296 23.0098 28.0604 21.9727 27.1933 21.5508C26.8183 21.3691 26.2089 21.3457 25.8104 21.5039ZM26.8417 22.7285C27.287 23.1797 26.8124 23.8945 26.2323 23.6484C25.9804 23.5488 25.8983 23.4082 25.8983 23.0977C25.8983 22.9043 25.9335 22.834 26.08 22.7109C26.3319 22.5 26.6132 22.5059 26.8417 22.7285Z" fill="#3c65f5"/>
  </g>
  <defs>
    <clipPath id="clip0_3_12">
      <rect width="30" height="30" fill="white"/>
    </clipPath>
  </defs>
</svg>